# xmcd
#
# Track frame offsets:
#	150
#	13791
#	35949
#	54447
#	84668
#	102250
#	122418
#	137697
#	152673
#	174526
#	194076
#	216187
#	237409
#	252302
#
# Disc length: 3667 seconds
#
# Revision: 1
# Processed by: cddbd v1.5.1PL0 Copyright (c) Steve Scherf et al.
# Submitted via: CDex 1.50Beta5
#
DISCID=c70e510e
DTITLE=BOOM,THE - BOOM,THE
DYEAR=1992
DGENRE=Rock
TTITLE0=気球に乗って
TTITLE1=子供らに花束を
TTITLE2=そばにいたい
TTITLE3=星のラブレター
TTITLE4=なし
TTITLE5=釣りに行こう
TTITLE6=きっと愛してる
TTITLE7=おりこうさん
TTITLE8=中央線
TTITLE9=ひのもとのうた
TTITLE10=川の流れは
TTITLE11=からたち野道
TTITLE12=100万つぶの涙
TTITLE13=島唄
EXTD=
EXTT0=
EXTT1=
EXTT2=
EXTT3=
EXTT4=
EXTT5=
EXTT6=
EXTT7=
EXTT8=
EXTT9=
EXTT10=
EXTT11=
EXTT12=
EXTT13=
PLAYORDER=
